<?xml version="1.0" standalone="no"?>
<!DOCTYPE svg PUBLIC "-//W3C//DTD SVG 20010904//EN"
 "http://www.w3.org/TR/2001/REC-SVG-20010904/DTD/svg10.dtd">
<svg version="1.0" xmlns="http://www.w3.org/2000/svg"
 width="260.000000pt" height="260.000000pt" viewBox="0 0 260.000000 260.000000"
 preserveAspectRatio="xMidYMid meet">
<metadata>
Created by potrace 1.14, written by Peter Selinger 2001-2017
</metadata>
<g transform="translate(0.000000,260.000000) scale(0.100000,-0.100000)"
fill="#000000" stroke="none">
<path d="M1108 2549 c-187 -34 -287 -68 -328 -115 -99 -113 -163 -345 -164
-589 0 -66 11 -227 18 -261 2 -12 7 -37 10 -55 11 -70 46 -205 81 -309 54
-161 221 -490 243 -477 4 3 43 8 87 12 44 4 82 8 85 10 4 2 24 6 46 9 260 32
670 167 933 307 214 114 448 290 437 328 -3 9 -7 42 -11 73 -13 122 -67 287
-135 415 -167 313 -469 548 -811 631 -162 39 -342 47 -491 21z m293 -29 c5 0
8 6 7 13 -3 14 31 11 47 -4 6 -6 1 -12 -14 -16 l-24 -6 23 -17 c17 -13 20 -21
13 -34 -15 -27 -4 -62 24 -75 19 -9 24 -17 19 -34 -3 -14 2 -29 15 -43 11 -11
22 -31 24 -44 2 -12 12 -34 22 -49 10 -14 16 -29 15 -34 -1 -4 9 -13 23 -19
22 -10 25 -16 19 -42 -12 -58 -44 -111 -82 -136 -56 -37 -102 -31 -102 15 0
13 -5 25 -11 27 -22 7 -15 64 15 132 9 22 14 46 12 52 -7 17 -46 38 -46 24 0
-5 -6 -10 -14 -10 -16 0 -26 -49 -15 -77 4 -12 -2 -37 -17 -69 -33 -67 -24
-140 19 -146 25 -3 29 -30 10 -67 -6 -14 -9 -29 -6 -34 14 -23 13 -74 -1 -87
-9 -7 -16 -19 -16 -27 0 -10 -7 -14 -20 -10 -15 4 -20 0 -20 -14 0 -22 -15
-25 -23 -5 -3 8 1 17 9 20 22 8 17 21 -21 62 -19 20 -35 41 -35 46 0 5 -7 17
-16 25 -12 13 -15 13 -13 2 4 -27 -26 -80 -48 -85 -28 -7 -44 2 -36 21 3 9 -6
30 -20 49 -15 18 -23 36 -20 40 4 3 1 6 -5 6 -15 0 -16 36 -2 45 6 4 7 12 4
18 -4 7 -4 9 1 5 10 -9 35 16 35 35 0 8 11 22 25 31 14 9 23 21 19 27 -3 6
-11 3 -20 -8 -13 -17 -13 -17 -14 3 0 12 6 24 14 27 8 3 13 22 13 51 0 25 6
53 14 63 9 11 10 14 2 9 -9 -5 -13 -1 -13 13 0 31 11 51 29 52 12 0 11 2 -4 9
-18 7 -18 8 -3 15 14 5 15 11 8 26 -6 10 -17 16 -24 13 -8 -3 -16 -2 -19 3 -3
5 6 10 20 11 35 3 40 9 24 34 -11 18 -11 20 3 15 16 -6 39 11 57 44 5 11 14
17 19 14 6 -4 7 1 3 11 -5 13 -3 16 10 11 16 -6 22 11 20 61 -1 22 21 7 28
-19 7 -23 7 -23 8 5 1 25 3 27 17 15 14 -11 16 -10 14 6 -3 28 1 43 7 23 2
-10 9 -18 14 -18z m-151 -115 c0 -2 -10 -9 -22 -15 -22 -11 -22 -10 -4 4 21
17 26 19 26 11z m-80 -119 c0 -3 -4 -8 -10 -11 -5 -3 -10 -1 -10 4 0 6 5 11
10 11 6 0 10 -2 10 -4z m435 -363 c10 -53 41 -91 72 -87 18 2 34 -6 52 -25 14
-15 33 -30 41 -34 10 -4 12 -8 4 -14 -5 -4 -10 -18 -10 -30 0 -21 1 -21 29 -5
27 16 29 16 43 -2 8 -11 14 -16 14 -12 0 5 6 3 14 -3 8 -7 25 -11 38 -10 63 6
86 -1 90 -25 4 -19 -6 -37 -39 -75 -23 -27 -43 -52 -43 -56 0 -4 11 -5 25 -3
l25 5 -25 -25 c-20 -20 -28 -22 -39 -13 -8 7 -13 18 -10 25 3 8 -5 13 -25 13
-33 0 -52 -29 -57 -87 -2 -19 -5 -47 -7 -62 -2 -15 0 -25 4 -22 20 12 30 -8
13 -27 -9 -10 -20 -16 -25 -14 -11 8 -59 -16 -53 -26 3 -5 -1 -9 -9 -9 -13 0
-13 -4 -4 -25 7 -14 17 -25 24 -25 6 0 14 -4 17 -9 4 -5 -4 -6 -16 -3 -22 5
-22 5 -5 -12 9 -10 15 -22 12 -27 -8 -12 -46 13 -41 28 3 7 -1 10 -10 6 -7 -3
-14 0 -14 6 0 6 -11 16 -24 22 -14 7 -27 22 -30 35 -6 24 -22 32 -76 39 -39 5
-75 34 -60 49 5 5 10 14 10 20 0 5 -7 1 -15 -10 -15 -19 -15 -19 -31 1 -11 13
-15 15 -11 4 3 -9 1 -22 -3 -29 -9 -15 3 -55 16 -55 5 0 21 -9 36 -19 16 -10
35 -16 43 -12 8 3 15 2 15 -3 0 -5 15 -12 33 -16 22 -5 26 -9 15 -12 -20 -5
-23 -14 -9 -29 5 -5 5 -18 1 -29 -6 -18 -7 -17 -13 7 -6 24 -23 34 -72 44 -53
10 -66 16 -91 39 -25 23 -29 24 -49 11 -17 -11 -25 -12 -36 -3 -11 10 -11 9
-1 -4 18 -25 4 -47 -31 -51 -29 -3 -32 -6 -33 -36 -1 -19 -6 -37 -12 -41 -18
-11 -33 -61 -23 -79 11 -19 -16 -82 -36 -82 -7 0 -22 -9 -33 -20 -17 -17 -23
-18 -39 -8 -15 9 -23 9 -35 -1 -13 -11 -17 -10 -23 5 -3 11 -10 22 -15 25 -5
3 -11 21 -13 39 -3 18 -12 44 -21 57 -22 34 -6 49 77 69 35 9 65 18 67 19 8 7
-22 95 -33 95 -7 0 -18 7 -25 15 -7 8 -18 15 -24 14 -43 -5 -47 21 -5 31 16 4
23 12 21 24 -2 10 1 15 7 12 12 -8 53 43 45 56 -8 12 47 58 60 52 6 -3 3 1 -6
9 -23 18 -24 41 -2 33 12 -5 15 -2 10 10 -7 19 18 48 51 58 20 6 20 8 -7 36
-16 17 -33 43 -38 59 -8 23 -7 31 9 45 21 18 33 21 24 7 -3 -5 0 -13 6 -16 6
-4 8 -18 5 -31 -8 -31 9 -65 29 -58 9 4 15 0 15 -7 1 -8 12 0 26 16 15 17 23
24 20 18 -14 -25 30 -13 63 17 21 19 40 29 50 25 27 -8 92 22 85 40 -5 12 -10
12 -27 3 -12 -6 -19 -7 -15 -3 4 4 1 17 -7 29 -27 37 -11 96 18 67 15 -15 36
5 30 29 -3 11 -14 22 -25 26 -39 12 -3 57 50 61 16 1 22 -6 27 -34z m-95 -37
c0 -3 -4 -8 -10 -11 -5 -3 -10 -1 -10 4 0 6 5 11 10 11 6 0 10 -2 10 -4z m-83
-78 c-3 -8 -6 -5 -6 6 -1 11 2 17 5 13 3 -3 4 -12 1 -19z m-484 -149 c-5 -19
-4 -20 16 -9 30 16 36 7 24 -34 -9 -29 -8 -33 6 -29 9 2 25 -5 35 -16 11 -12
25 -21 33 -21 7 0 13 -5 13 -11 0 -19 28 -39 46 -32 15 5 16 2 11 -25 -5 -22
-3 -32 6 -32 6 -1 -8 -12 -33 -25 -25 -14 -55 -32 -68 -41 -21 -16 -22 -16
-16 2 4 11 14 25 23 33 14 12 12 13 -18 7 -28 -5 -32 -4 -21 9 6 8 9 23 5 36
-5 14 -4 19 4 15 7 -5 11 1 11 14 0 11 -7 23 -15 26 -8 4 -12 11 -9 16 4 6 -3
5 -15 -1 -18 -10 -21 -9 -21 9 0 11 -7 20 -15 20 -8 0 -15 5 -15 11 0 5 -5 7
-11 3 -6 -4 -9 1 -8 12 2 11 1 24 -3 29 -9 15 9 55 26 55 9 0 12 -7 9 -21z m2
-160 c-3 -4 0 -19 7 -33 10 -24 8 -30 -17 -56 -33 -34 -46 -31 -41 10 2 21 0
27 -10 23 -23 -8 -16 27 9 49 12 11 16 17 10 13 -8 -4 -13 0 -13 9 0 10 6 13
15 10 9 -4 15 0 15 7 1 9 5 8 15 -5 8 -10 12 -22 10 -27z m1211 -34 c4 -8 13
-15 22 -15 8 0 13 -3 9 -6 -3 -4 0 -19 8 -33 l14 -27 -80 -38 c-43 -21 -79
-42 -79 -47 0 -4 -7 -6 -16 -2 -8 3 -25 -4 -38 -16 -17 -16 -30 -20 -48 -16
-18 5 -27 2 -31 -9 -5 -12 -14 -14 -39 -9 -34 7 -61 26 -51 37 3 3 -2 8 -11
12 -23 9 -20 23 8 35 13 6 27 21 30 32 3 12 8 18 12 14 4 -3 22 7 41 23 36 32
37 32 98 31 27 -1 53 7 80 23 46 29 63 32 71 11z m-736 -231 c0 -8 -4 -12 -10
-9 -5 3 -10 10 -10 16 0 5 5 9 10 9 6 0 10 -7 10 -16z m20 -66 c0 -10 -4 -18
-9 -18 -11 0 -22 40 -14 53 7 12 23 -12 23 -35z m143 -8 c4 -17 0 -20 -24 -20
-35 0 -37 11 -6 26 12 7 23 12 23 13 1 0 4 -8 7 -19z"/>
<path d="M1265 2370 c3 -5 8 -10 11 -10 2 0 4 5 4 10 0 6 -5 10 -11 10 -5 0
-7 -4 -4 -10z"/>
<path d="M1230 2319 c0 -5 5 -7 10 -4 6 3 10 8 10 11 0 2 -4 4 -10 4 -5 0 -10
-5 -10 -11z"/>
<path d="M1615 1800 c3 -5 8 -10 11 -10 2 0 4 5 4 10 0 6 -5 10 -11 10 -5 0
-7 -4 -4 -10z"/>
<path d="M1575 1720 c3 -5 8 -10 11 -10 2 0 4 5 4 10 0 6 -5 10 -11 10 -5 0
-7 -4 -4 -10z"/>
<path d="M1420 1550 c-8 -5 -10 -10 -5 -10 6 0 17 5 25 10 8 5 11 10 5 10 -5
0 -17 -5 -25 -10z"/>
<path d="M1616 1525 c4 -8 11 -15 16 -15 6 0 5 6 -2 15 -7 8 -14 15 -16 15 -2
0 -1 -7 2 -15z"/>
<path d="M1242 1470 c7 -10 14 -18 15 -16 6 6 -9 36 -18 36 -5 0 -4 -9 3 -20z"/>
<path d="M1506 1463 c-6 -14 -5 -15 5 -6 7 7 10 15 7 18 -3 3 -9 -2 -12 -12z"/>
<path d="M1500 1436 c0 -2 8 -10 18 -17 15 -13 16 -12 3 4 -13 16 -21 21 -21
13z"/>
<path d="M1574 1409 c0 -10 4 -19 8 -19 4 0 8 6 8 14 0 8 -4 17 -8 20 -4 2 -8
-4 -8 -15z"/>
<path d="M1651 1417 c2 -1 13 -9 24 -17 19 -14 19 -14 6 3 -7 9 -18 17 -24 17
-6 0 -8 -1 -6 -3z"/>
<path d="M1384 1402 c4 -7 -5 -23 -21 -38 -23 -22 -24 -25 -6 -15 30 15 47 47
31 57 -7 4 -8 3 -4 -4z"/>
<path d="M1306 1383 c-4 -11 -1 -11 14 -3 24 13 25 17 5 17 -8 0 -16 -6 -19
-14z"/>
<path d="M1601 1364 c0 -11 3 -14 6 -6 3 7 2 16 -1 19 -3 4 -6 -2 -5 -13z"/>
<path d="M1688 1339 c14 -5 20 -13 16 -20 -4 -8 -3 -9 5 -5 16 10 -5 36 -28
35 -10 0 -8 -3 7 -10z"/>
<path d="M1670 1300 c-9 -6 -10 -10 -3 -10 6 0 15 5 18 10 8 12 4 12 -15 0z"/>
<path d="M620 2364 c-138 -91 -278 -228 -364 -357 -73 -110 -148 -272 -171
-373 -2 -10 -9 -37 -15 -59 -23 -91 -34 -337 -18 -440 17 -113 66 -284 89
-311 10 -12 148 -53 203 -60 17 -2 42 -6 56 -9 14 -3 59 -8 100 -11 41 -3 78
-8 82 -10 17 -11 16 19 -3 62 -20 48 -84 256 -93 304 -2 14 -11 59 -20 100
-25 125 -27 148 -31 335 -6 266 27 463 107 645 28 64 87 160 116 193 34 36 28
34 -38 -9z"/>
<path d="M2526 1269 c-29 -49 -183 -199 -274 -268 -299 -226 -725 -399 -1097
-447 -27 -3 -51 -7 -52 -8 -12 -10 260 -286 367 -372 130 -105 114 -100 222
-64 381 127 678 424 802 800 26 81 32 106 50 215 11 62 15 175 7 175 -4 0 -15
-14 -25 -31z"/>
<path d="M220 664 c0 -15 110 -162 168 -225 128 -138 327 -265 519 -330 46
-15 83 -26 83 -23 0 3 -26 40 -59 83 -68 89 -154 220 -202 307 l-33 61 -85 12
c-47 7 -96 15 -107 17 -45 8 -191 58 -236 80 -27 14 -48 22 -48 18z"/>
</g>
</svg>
